<?xml version="1.0" encoding="UTF-8" standalone="no"?>
<svg
   xmlns:dc="http://purl.org/dc/elements/1.1/"
   xmlns:cc="http://creativecommons.org/ns#"
   xmlns:rdf="http://www.w3.org/1999/02/22-rdf-syntax-ns#"
   xmlns:svg="http://www.w3.org/2000/svg"
   xmlns="http://www.w3.org/2000/svg"
   xmlns:sodipodi="http://sodipodi.sourceforge.net/DTD/sodipodi-0.dtd"
   xmlns:inkscape="http://www.inkscape.org/namespaces/inkscape"
   sodipodi:docname="logonsvg.svg"
   inkscape:version="1.0 (4035a4fb49, 2020-05-01)"
   inkscape:export-ydpi="92"
   inkscape:export-xdpi="92"
   inkscape:export-filename="C:\Users\User\Desktop\bitmap.png"
   width="175"
   height="60"
   viewBox="0 0 46.302082 15.875002"
   version="1.1"
   id="svg8">
  <defs
     id="defs2" />
  <sodipodi:namedview
     inkscape:window-maximized="1"
     inkscape:window-y="-8"
     inkscape:window-x="-8"
     inkscape:window-height="705"
     inkscape:window-width="1366"
     units="px"
     showgrid="false"
     inkscape:document-rotation="0"
     inkscape:current-layer="layer1"
     inkscape:document-units="px"
     inkscape:cy="214.5"
     inkscape:cx="119.60261"
     inkscape:zoom="1"
     inkscape:pageshadow="2"
     inkscape:pageopacity="0.0"
     borderopacity="1.0"
     bordercolor="#666666"
     pagecolor="#ffffff"
     id="base" />
  <metadata
     id="metadata5">
    <rdf:RDF>
      <cc:Work
         rdf:about="">
        <dc:format>image/svg+xml</dc:format>
        <dc:type
           rdf:resource="http://purl.org/dc/dcmitype/StillImage" />
        <dc:title></dc:title>
      </cc:Work>
    </rdf:RDF>
  </metadata>
  <g
     id="layer1"
     inkscape:groupmode="layer"
     inkscape:label="Layer 1">
    <path
       inkscape:transform-center-y="0.5224187"
       inkscape:transform-center-x="-1.1681541"
       d="M 43.089283,51.40476 76.153955,59.146975 85.981336,91.652929 62.744045,116.41667 29.679373,108.67445 19.851992,76.168498 Z"
       inkscape:randomized="0"
       inkscape:rounded="0"
       inkscape:flatsided="true"
       sodipodi:arg2="-1.3407865"
       sodipodi:arg1="-1.8643853"
       sodipodi:r2="22.598057"
       sodipodi:r1="33.959011"
       sodipodi:cy="83.910713"
       sodipodi:cx="52.916664"
       sodipodi:sides="6"
       id="path835"
       style="opacity:0.625;fill:none;fill-opacity:0;fill-rule:evenodd;stroke:#ffffff;stroke-width:1.5875;stroke-linecap:round;stroke-linejoin:round;stroke-opacity:0"
       sodipodi:type="star" />
    <path
       inkscape:transform-center-y="-1.9523809e-06"
       d="m 85.422624,195.79167 -45.55775,-2.73451 -20.410715,-40.82143 25.147036,-38.08691 45.55775,2.73451 20.410715,40.82143 z"
       inkscape:randomized="0"
       inkscape:rounded="0"
       inkscape:flatsided="true"
       sodipodi:arg2="1.6307475"
       sodipodi:arg1="1.1071487"
       sodipodi:r2="39.525181"
       sodipodi:r1="45.639744"
       sodipodi:cy="154.97025"
       sodipodi:cx="65.011909"
       sodipodi:sides="6"
       id="path837"
       style="opacity:0.625;fill:none;fill-opacity:0;fill-rule:evenodd;stroke:#ffffff;stroke-width:1.5875;stroke-linecap:round;stroke-linejoin:round;stroke-opacity:0"
       sodipodi:type="star" />
    <path
       d="M 62.744039,116.41667 19.812257,92.502885 19.056308,43.365981 61.232142,18.142858 l 42.931778,23.913781 0.75595,49.136905 z"
       inkscape:randomized="0"
       inkscape:rounded="0"
       inkscape:flatsided="true"
       sodipodi:arg2="2.0790118"
       sodipodi:arg1="1.555413"
       sodipodi:r2="42.558846"
       sodipodi:r1="49.142719"
       sodipodi:cy="67.279762"
       sodipodi:cx="61.988091"
       sodipodi:sides="6"
       id="path839"
       style="opacity:0.625;fill:none;fill-opacity:0;fill-rule:evenodd;stroke:#ffffff;stroke-width:1.5875;stroke-linecap:round;stroke-linejoin:round;stroke-opacity:0"
       sodipodi:type="star" />
    <path
       inkscape:transform-center-y="-1.0190476e-06"
       d="m 116.41667,142.87501 -93.370772,37.74672 -79.375005,-61.9881 13.995767,-99.734819 93.37077,-37.746721 79.375,61.988098 z"
       inkscape:randomized="0"
       inkscape:rounded="0"
       inkscape:flatsided="true"
       sodipodi:arg2="1.1866169"
       sodipodi:arg1="0.66301815"
       sodipodi:r2="87.219185"
       sodipodi:r1="100.71204"
       sodipodi:cy="80.886909"
       sodipodi:cx="37.041664"
       sodipodi:sides="6"
       id="path841"
       style="opacity:0.625;fill:#ff0000;fill-opacity:0;fill-rule:evenodd;stroke:#ffffff;stroke-width:1.5875;stroke-linecap:round;stroke-linejoin:round;stroke-opacity:0"
       sodipodi:type="star" />
    <text
       id="text847"
       y="152.23573"
       x="19.454159"
       style="font-style:normal;font-weight:normal;font-size:10.5833px;line-height:1.25;font-family:sans-serif;fill:#000000;fill-opacity:1;stroke:none;stroke-width:0.264583"
       xml:space="preserve"><tspan
         style="stroke-width:0.264583"
         y="152.23573"
         x="19.454159"
         id="tspan845"
         sodipodi:role="line" /></text>
    <path
       sodipodi:type="star"
       style="opacity:0.625;fill:none;fill-opacity:0;fill-rule:evenodd;stroke:#ffffff;stroke-width:1.5875;stroke-linecap:round;stroke-linejoin:round;stroke-opacity:0"
       id="path861"
       sodipodi:sides="6"
       sodipodi:cx="65.011909"
       sodipodi:cy="154.97025"
       sodipodi:r1="45.639744"
       sodipodi:r2="39.525181"
       sodipodi:arg1="1.1071487"
       sodipodi:arg2="1.6307475"
       inkscape:flatsided="true"
       inkscape:rounded="0"
       inkscape:randomized="0"
       d="m 85.422624,195.79167 -45.55775,-2.73451 -20.410715,-40.82143 25.147036,-38.08691 45.55775,2.73451 20.410715,40.82143 z"
       inkscape:transform-center-y="-1.9523809e-06" />
    <path
       transform="scale(0.26458333)"
       id="path991"
       d=""
       style="opacity:0.625;fill:#ffff00;fill-opacity:0;fill-rule:evenodd;stroke:#ffff00;stroke-width:45.3974;stroke-linecap:round;stroke-linejoin:round;stroke-miterlimit:4;stroke-dasharray:none;stroke-opacity:0" />
    <path
       transform="scale(0.26458333)"
       id="path993"
       d=""
       style="opacity:0.625;fill:#ffff00;fill-opacity:0;fill-rule:evenodd;stroke:#ffff00;stroke-width:45.3974;stroke-linecap:round;stroke-linejoin:round;stroke-miterlimit:4;stroke-dasharray:none;stroke-opacity:0" />
    <path
       transform="scale(0.26458333)"
       id="path995"
       d=""
       style="opacity:0.625;fill:#000000;fill-opacity:1;fill-rule:evenodd;stroke:#ffff00;stroke-width:45.3974;stroke-linecap:round;stroke-linejoin:round;stroke-miterlimit:4;stroke-dasharray:none;stroke-opacity:0" />
    <g
       transform="matrix(0.24640567,0,0,0.24640567,-1.7845196,-19.43289)"
       id="g1183">
      <g
         id="g1143"
         transform="translate(-47.167273,46.295303)"
         inkscape:export-xdpi="92"
         inkscape:export-ydpi="92">
        <path
           style="fill:#a3dbf5;stroke-width:0.264583"
           d="m 73.215051,77.059517 c -0.602761,-0.684773 -1.671359,-2.20282 -2.374662,-3.373438 -1.327789,-2.210048 -4.253228,-7.920693 -4.239385,-8.275551 0.0044,-0.111565 0.927086,1.584825 2.050521,3.769755 2.886313,5.613493 5.143618,8.859693 6.160754,8.859693 0.53778,0 0.876115,-0.394068 1.249398,-1.455209 0.220065,-0.625586 0.283647,-0.675185 0.300109,-0.234119 0.02751,0.736928 -0.946206,1.953911 -1.563329,1.953911 -0.268112,0 -0.980645,-0.560268 -1.583406,-1.245042 z m 9.873602,-0.221334 c -0.261652,-0.681856 0.04938,-4.715579 0.407167,-5.280499 l 0.335143,-0.529167 -0.17997,0.529167 c -0.09898,0.291041 -0.228018,1.600729 -0.286742,2.910417 l -0.106773,2.38125 0.530757,-1.058334 c 0.497665,-0.992349 0.48278,-0.500144 -0.02601,0.859896 -0.261073,0.697873 -0.456761,0.752279 -0.673574,0.18727 z m -6.68509,-1.59838 c 0.01269,-0.308227 0.07539,-0.37092 0.159852,-0.159853 0.07643,0.190994 0.06703,0.419197 -0.02089,0.507118 -0.08792,0.08792 -0.150453,-0.06835 -0.138964,-0.347265 z m -2.053569,-0.163867 c -0.452502,-0.583528 -0.677177,-1.167493 -0.24424,-0.634818 0.396146,0.487408 0.415218,0.483516 0.648203,-0.132291 0.132027,-0.348962 0.326595,-1.267177 0.432374,-2.040478 0.105779,-0.773303 0.251705,-1.346623 0.324279,-1.274048 0.170277,0.170275 -0.413494,3.646705 -0.686556,4.08853 -0.167561,0.271118 -0.259509,0.269782 -0.47406,-0.0069 z m 2.318152,-1.15905 c 0.0127,-0.308226 0.07539,-0.370919 0.159852,-0.159853 0.07643,0.190995 0.06703,0.419198 -0.02089,0.507119 -0.08792,0.08792 -0.150453,-0.06835 -0.138965,-0.347266 z m -3.573254,-0.866267 c -0.598444,-1.157264 -0.511408,-1.387462 0.128029,-0.338616 0.298339,0.489354 0.485267,0.946904 0.415395,1.016775 -0.06987,0.06987 -0.314413,-0.235299 -0.543424,-0.678159 z m 11.49797,0.623731 c 0,-0.14552 0.115414,-0.443177 0.256479,-0.661458 0.141066,-0.218281 0.256479,-0.277812 0.256479,-0.132292 0,0.145521 -0.115413,0.443178 -0.256479,0.661459 -0.141065,0.218281 -0.256479,0.277812 -0.256479,0.132291 z m -7.639244,-1.190625 c 0,-0.363802 0.06005,-0.51263 0.133452,-0.330729 0.0734,0.181901 0.0734,0.479558 0,0.661459 -0.0734,0.181901 -0.133452,0.03307 -0.133452,-0.33073 z m 8.184217,-0.132291 c 0,-0.145521 0.286898,-0.800365 0.637548,-1.455209 0.35065,-0.654843 0.637548,-1.071562 0.637548,-0.926041 0,0.145521 -0.286898,0.800364 -0.637548,1.455208 -0.35065,0.654844 -0.637548,1.071563 -0.637548,0.926042 z m -7.947234,-0.968616 c -0.02839,-0.880065 1.022181,-3.736387 1.600803,-4.352302 0.792337,-0.843405 1.092949,-0.800395 2.053696,0.293834 0.865018,0.985203 1.358408,1.177679 1.358408,0.529929 0,-0.592064 -1.769364,-2.436177 -2.517616,-2.623976 -1.107197,-0.277888 -2.358538,0.445613 -2.99515,1.731736 -0.314728,0.635834 -0.571883,0.977468 -0.571453,0.759186 0.0014,-0.709386 1.013682,-2.080607 1.858497,-2.517477 0.539036,-0.278748 1.102384,-0.365525 1.62614,-0.250489 1.053656,0.231421 2.864165,2.046853 2.864165,2.87195 0,0.969558 -0.692084,1.046523 -1.331809,0.14811 -1.382676,-1.941786 -2.373252,-1.420513 -3.308103,1.740827 -0.342871,1.159465 -0.629781,1.910369 -0.637578,1.668672 z M 72.03406,70.709199 c -0.143585,-0.377084 -0.113194,-0.407474 0.148113,-0.148113 0.180821,0.179477 0.262115,0.392969 0.180653,0.474432 -0.08146,0.08146 -0.229407,-0.06538 -0.328766,-0.326319 z m 3.596641,-0.871307 c 0,-0.363802 0.06005,-0.51263 0.133452,-0.330729 0.0734,0.181901 0.0734,0.479557 0,0.661458 -0.0734,0.181901 -0.133452,0.03307 -0.133452,-0.330729 z m -4.921869,-1.866783 c -0.398177,-0.887256 -0.67053,-1.666622 -0.605228,-1.731924 0.0653,-0.0653 0.436872,0.614846 0.825714,1.511438 0.388841,0.896594 0.661194,1.675958 0.605228,1.731926 -0.05597,0.05596 -0.427537,-0.624182 -0.825714,-1.51144 z m 5.165564,0.65411 c 0.01269,-0.308225 0.07539,-0.37092 0.159852,-0.159853 0.07643,0.190995 0.06703,0.419198 -0.02089,0.507119 -0.08792,0.08792 -0.150453,-0.06835 -0.138965,-0.347266 z m 11.383027,-0.705556 c 0.311716,-0.618464 1.401151,-2.362215 2.420972,-3.875002 1.019818,-1.512788 2.260142,-3.596382 2.756275,-4.630209 0.496131,-1.033827 0.822339,-1.582029 0.724903,-1.218227 -0.310636,1.159837 -1.718672,3.78126 -2.983616,5.55478 -1.451951,2.035714 -1.540087,2.175123 -2.486803,3.933469 -0.880536,1.635435 -1.234721,1.82838 -0.431731,0.235189 z m -2.672665,0.68998 c 0,-0.141962 0.185161,-0.489227 0.411472,-0.771702 0.387977,-0.484269 0.393486,-0.475826 0.09645,0.147868 -0.385712,0.809897 -0.507923,0.959998 -0.507922,0.623834 z m 0.902782,-1.784528 c 0.09171,-0.27458 0.852683,-1.643799 1.691063,-3.042709 0.83838,-1.39891 1.753378,-2.985257 2.033326,-3.525215 0.279948,-0.539958 0.557673,-0.933066 0.617167,-0.873573 0.05949,0.05949 -0.313383,0.858465 -0.828617,1.775492 -1.502338,2.673918 -3.694517,6.209671 -3.512939,5.666005 z m -16.333488,-2.42348 c -0.500615,-1.049803 -0.527279,-1.178327 -0.244452,-1.178327 0.189298,0 0.89236,1.906409 0.754064,2.044705 -0.03592,0.03593 -0.26525,-0.353946 -0.509612,-0.866378 z m -2.92515,0.266653 c -0.255317,-0.665346 -0.179999,-0.837024 0.131904,-0.300656 0.154435,0.265576 0.225054,0.538602 0.156932,0.606724 -0.06812,0.06812 -0.198098,-0.06961 -0.288836,-0.306068 z m -0.796679,-2.139231 c -0.234648,-0.688653 -0.417933,-1.379716 -0.4073,-1.535694 0.01063,-0.155978 0.24838,0.361703 0.528328,1.150402 0.279948,0.788699 0.463234,1.479761 0.407301,1.535694 -0.05593,0.05593 -0.293681,-0.461748 -0.528329,-1.150402 z m 2.376942,-2.448185 c -0.232278,-1.021249 -0.413947,-2.130968 -0.403707,-2.466044 0.01024,-0.335075 0.243297,0.457479 0.517908,1.761231 0.274611,1.303753 0.456279,2.413473 0.403708,2.466045 -0.05257,0.05257 -0.285631,-0.739983 -0.517909,-1.761232 z m -3.163233,-0.08821 c -0.08926,-0.333194 -0.151948,-0.843932 -0.139317,-1.134974 0.01263,-0.291041 0.13194,-0.06471 0.265133,0.502956 0.257953,1.099395 0.147719,1.653138 -0.125816,0.632018 z M 90.02793,58.5931 c 1.192157,-3.406501 1.445882,-5.713221 0.771798,-7.016755 -0.454446,-0.878801 -1.070869,-1.264302 -2.773881,-1.73474 -0.817502,-0.225826 -0.984266,-0.334922 -0.530672,-0.347161 0.969803,-0.02617 2.734328,0.853832 3.394233,1.692764 0.414626,0.52711 0.574517,1.096405 0.574517,2.045569 0,1.487364 -0.64352,4.21885 -1.230067,5.221146 -0.235317,0.402112 -0.317346,0.457552 -0.205928,0.139177 z M 64.305756,55.947267 c -7.94e-4,-1.309688 0.04394,-1.878827 0.09942,-1.264755 0.05549,0.614073 0.05615,1.685636 0.0015,2.38125 -0.05467,0.695615 -0.100072,0.193192 -0.100879,-1.116495 z M 93.766837,55.4181 c 0.08409,-0.727604 0.195643,-1.372526 0.247904,-1.43316 0.197795,-0.229488 0.04756,1.721419 -0.171482,2.22691 -0.147526,0.340439 -0.174781,0.05735 -0.07642,-0.79375 z M 67.143146,55.39605 c 0.01269,-0.308224 0.07539,-0.370919 0.159852,-0.159852 0.07643,0.190996 0.06703,0.419199 -0.02089,0.507118 -0.08792,0.08792 -0.150453,-0.06835 -0.138964,-0.347266 z m 0.256071,-1.507804 c -0.02138,-0.814457 0.711008,-2.248301 1.368418,-2.679053 0.347183,-0.227483 1.041737,-0.476141 1.543454,-0.552572 l 0.91221,-0.138967 -0.928091,0.333556 c -1.53626,0.55213 -1.838953,0.832732 -2.372481,2.199322 -0.281124,0.720078 -0.516704,1.09705 -0.52351,0.837714 z m 26.600297,-1.534904 c -0.09942,-0.749453 -0.127505,-1.415897 -0.06242,-1.480986 0.06509,-0.06509 0.202316,0.492213 0.304951,1.238451 0.102634,0.746238 0.130723,1.412681 0.06242,1.480986 -0.0683,0.06831 -0.205534,-0.488998 -0.304954,-1.238451 z m -29.496007,0.692353 c -0.03995,-0.767606 0.759868,-2.79166 1.502269,-3.801685 1.50754,-2.050987 3.772033,-2.419236 7.681332,-1.249131 3.128768,0.936483 3.260066,1.041959 2.00975,1.614501 -0.568687,0.260411 -1.235445,0.644327 -1.481686,0.853145 -0.246241,0.208818 -0.603429,0.317319 -0.79375,0.241114 -0.22502,-0.0901 -0.184108,-0.145861 0.116982,-0.159444 0.254661,-0.01149 0.46302,-0.199482 0.46302,-0.417763 0,-0.225048 0.237285,-0.396875 0.548066,-0.396875 0.301436,0 0.717252,-0.169187 0.924036,-0.375971 0.615559,-0.615559 -2.627557,-1.594392 -5.30856,-1.602222 -1.84241,-0.0054 -2.229075,0.07813 -2.984215,0.644545 -0.882663,0.662065 -2.081425,2.776996 -2.447778,4.318526 -0.11391,0.479307 -0.214222,0.624119 -0.229466,0.33126 z m 28.599676,-3.545003 c -0.335336,-0.534186 -1.01033,-1.245761 -1.499987,-1.581279 -1.757302,-1.204124 -3.087867,-1.431165 -8.73823,-1.491049 -4.89548,-0.05188 -5.467625,-0.109362 -7.641858,-0.767704 -1.292606,-0.391392 -2.413048,-0.648767 -2.489871,-0.571943 -0.303906,0.303905 0.945947,1.280344 2.713931,2.120241 2.032526,0.96557 3.647033,1.371129 6.888632,1.730402 l 2.116666,0.234594 -2.363319,-0.124323 C 78.161833,48.843034 74.873906,47.719049 73.009237,45.945645 71.733,44.731873 71.8622,44.374978 73.406112,44.849342 c 3.5863,1.101882 4.7159,1.254627 9.591146,1.296916 4.86586,0.04221 6.317493,0.245198 8.069792,1.128442 1.067003,0.537823 1.952051,1.37001 2.425898,2.281008 0.575178,1.105811 0.315979,1.069225 -0.389765,-0.05502 z m -8.052319,-0.222848 c 0.329118,-0.06329 0.805368,-0.06088 1.058333,0.0053 0.252966,0.06622 -0.01632,0.118004 -0.598397,0.115067 -0.582084,-0.0029 -0.789054,-0.05712 -0.459936,-0.120406 z"
           id="path1153" />
        <path
           style="fill:#d66a8f;stroke-width:0.264583"
           d="m 70.554663,85.168343 c -7.5869,-1.117701 -12.160361,-6.883895 -11.090819,-13.98324 0.166438,-1.104768 0.418048,-2.187263 0.559134,-2.405544 0.189462,-0.293126 0.217085,-0.22396 0.105667,0.264583 -0.631733,2.770005 -0.705204,4.275196 -0.310762,6.366523 1.012047,5.365859 4.95944,8.665668 11.389985,9.521413 7.786535,1.036196 17.640703,-4.4352 23.787908,-13.207918 4.570437,-6.522502 5.943344,-13.085283 3.705762,-17.714303 -0.668861,-1.383715 -2.610225,-3.704215 -2.876354,-3.438087 -0.07461,0.07461 0.151297,0.659773 0.50201,1.300365 0.350713,0.640593 0.711515,1.462371 0.80178,1.826173 0.09026,0.363802 -0.138827,0.01338 -0.50909,-0.778718 -0.370266,-0.792097 -0.97351,-1.833893 -1.340548,-2.315104 -0.973609,-1.276467 -0.231696,-1.103973 1.403276,0.326261 5.207618,4.555498 4.282788,13.37518 -2.31552,22.082145 -1.652519,2.180619 -5.660329,6.119644 -7.547811,7.418266 -3.531415,2.429677 -7.193235,4.024212 -10.609756,4.620004 -2.463485,0.429596 -3.402174,0.449048 -5.654862,0.117181 z m -1.409828,-3.855659 c -0.706592,-0.21703 -1.229121,-0.450194 -1.161173,-0.518139 0.06795,-0.06795 0.467474,0.01675 0.887839,0.188238 0.420364,0.171476 2.073986,0.393615 3.674715,0.493638 l 2.910417,0.181862 -2.513542,0.0245 c -1.545421,0.01506 -3.008365,-0.127487 -3.798256,-0.370102 z m 8.029422,-0.36126 c 0.944693,-0.26974 1.760109,-0.447953 1.812034,-0.396025 0.131945,0.131945 -2.607952,0.928325 -3.11466,0.905311 -0.228249,-0.01037 0.357933,-0.239546 1.302626,-0.509286 z M 65.905184,79.663335 c -1.669401,-1.226127 -3.241118,-3.294407 -3.646344,-4.798359 -0.09802,-0.363803 0.180902,0.01672 0.619834,0.845632 0.817924,1.544606 2.175549,3.10656 3.582125,4.12125 0.436563,0.314931 0.722317,0.576377 0.63501,0.580986 -0.08731,0.0046 -0.623088,-0.332669 -1.190625,-0.749509 z m 15.504574,-0.373444 c 5.710272,-2.927723 10.657377,-7.442332 13.42136,-12.248012 0.533445,-0.927487 1.018945,-1.637293 1.078892,-1.577346 0.134805,0.134804 -1.613146,3.072675 -2.680735,4.505651 -2.798813,3.756723 -10.2698,9.498036 -13.407017,10.303044 -0.363802,0.09335 0.350573,-0.349149 1.5875,-0.983337 z M 61.851479,73.652303 c 0.0127,-0.308227 0.07539,-0.37092 0.159852,-0.159854 0.07643,0.190995 0.06703,0.419198 -0.02089,0.507119 -0.08792,0.08792 -0.150453,-0.06835 -0.138965,-0.347265 z m -0.233891,-1.300869 c 0.0054,-0.436563 0.06469,-0.583126 0.131773,-0.325694 0.06708,0.257431 0.06267,0.614619 -0.0098,0.79375 -0.07248,0.179131 -0.127363,-0.03149 -0.121971,-0.468056 z m -0.28486,-2.403298 c 0.01722,-0.860999 0.121427,-1.92264 0.231576,-2.359202 0.110248,-0.436954 0.139072,0.217172 0.06412,1.455208 -0.158564,2.619219 -0.341161,3.177442 -0.295699,0.903994 z m -1.081534,-1.962327 c 0,-0.218282 0.115416,-0.575469 0.25648,-0.79375 0.227983,-0.352778 0.25648,-0.352778 0.25648,0 0,0.218281 -0.115416,0.575468 -0.25648,0.79375 -0.227982,0.352777 -0.25648,0.352777 -0.25648,0 z m 0.521064,-1.462754 c 0,-0.326609 1.575088,-3.223966 2.081947,-3.829717 l 0.5528,-0.660655 -0.416272,1.256972 c -0.22895,0.691335 -0.526928,1.188583 -0.662175,1.104996 -0.135246,-0.08359 -0.486782,0.392573 -0.781191,1.058132 -0.474457,1.072591 -0.775109,1.487731 -0.775109,1.070272 z m 1.079221,-0.54367 c 0.0127,-0.308224 0.07539,-0.370919 0.159852,-0.159853 0.07643,0.190997 0.06703,0.4192 -0.02089,0.507119 -0.08792,0.08792 -0.150453,-0.06835 -0.138965,-0.347266 z M 96.39924,64.017058 c 0.09205,-0.363802 0.33074,-1.078177 0.530426,-1.5875 0.31069,-0.792451 0.341342,-0.81575 0.212479,-0.16151 -0.08282,0.420492 -0.321516,1.134867 -0.530426,1.5875 -0.285716,0.619036 -0.338368,0.659059 -0.212479,0.16151 z M 79.672475,62.347093 c -0.08254,-0.215079 -0.102611,-0.850059 -0.04462,-1.411065 0.100163,-0.968918 0.107672,-0.957059 0.149923,0.23676 0.02445,0.691224 0.163539,1.25677 0.30906,1.25677 0.35828,0 0.345448,-5.423641 -0.01461,-6.168956 -0.272904,-0.564932 -0.26975,-0.566129 0.140383,-0.05327 0.337119,0.421563 0.404971,1.093177 0.345323,3.418025 -0.05193,2.023901 -0.173577,2.926339 -0.404823,3.003079 -0.181824,0.06034 -0.398118,-0.06627 -0.480652,-0.281347 z m 17.654058,-1.505035 c 0,-0.363802 0.06006,-0.51263 0.133453,-0.330729 0.0734,0.181901 0.0734,0.479557 0,0.661459 -0.0734,0.181901 -0.133453,0.03307 -0.133453,-0.33073 z M 76.49525,60.489213 C 76.42078,60.295148 76.40028,59.134288 76.4497,57.909525 l 0.08985,-2.226842 0.05385,2.475704 c 0.04521,2.078194 0.117579,2.45125 0.45073,2.323408 0.218281,-0.08376 0.396875,-0.03697 0.396875,0.103984 0,0.387703 -0.790915,0.306948 -0.945758,-0.09657 z m 21.143047,-2.557571 c 0,-1.091407 0.0467,-1.537891 0.103786,-0.992188 0.05708,0.545703 0.05708,1.438672 0,1.984375 -0.05708,0.545703 -0.103786,0.09922 -0.103786,-0.992187 z M 77.441008,57.173226 c 0,-0.420762 1.188672,-0.937213 1.702919,-0.739879 0.22756,0.08732 0.404347,0.311335 0.392859,0.497803 -0.01635,0.265547 -0.04981,0.267347 -0.15434,0.0083 -0.186846,-0.463055 -0.884155,-0.411793 -1.457584,0.107153 -0.299191,0.270763 -0.483854,0.319087 -0.483854,0.126618 z m -0.264584,-1.021263 c 0,-0.136837 0.148829,-0.266649 0.33073,-0.288473 0.181901,-0.02182 0.747448,-0.09791 1.256771,-0.169075 0.881668,-0.123197 0.888005,-0.118638 0.132291,0.09514 -0.436562,0.123497 -1.002109,0.311538 -1.256771,0.417869 -0.254661,0.106332 -0.463021,0.08137 -0.463021,-0.05546 z m 20.129223,-1.285078 c 0.0127,-0.308225 0.07539,-0.37092 0.159851,-0.159853 0.07643,0.190996 0.06703,0.419199 -0.02088,0.507118 -0.08792,0.08792 -0.150453,-0.06835 -0.138964,-0.347265 z"
           id="path1151" />
        <path
           style="fill:#1998d4;stroke-width:0.264583"
           d="m 73.587905,77.18008 -0.777106,-0.859896 0.859896,0.777105 c 0.472943,0.427408 0.859896,0.814361 0.859896,0.859896 0,0.204406 -0.218315,0.02445 -0.942686,-0.777105 z m 1.471853,0.76 c 0,-0.05494 0.208359,-0.263301 0.463021,-0.463021 0.419644,-0.329108 0.429002,-0.319749 0.09989,0.0999 -0.345643,0.44073 -0.562915,0.580887 -0.562915,0.363125 z m 1.364693,-3.604271 c 0,-0.363802 0.06005,-0.51263 0.133452,-0.330729 0.0734,0.181901 0.0734,0.479557 0,0.661458 -0.0734,0.181901 -0.133452,0.03307 -0.133452,-0.330729 z m -2.952193,-0.264583 c -0.155761,-0.291042 -0.223671,-0.529167 -0.15091,-0.529167 0.07276,0 0.259732,0.238125 0.415493,0.529167 0.155761,0.291041 0.22367,0.529166 0.15091,0.529166 -0.07276,0 -0.259733,-0.238125 -0.415493,-0.529166 z M 72.19232,71.546352 c -0.443306,-0.97295 -0.358731,-1.180516 0.120612,-0.296006 0.223843,0.413047 0.357479,0.800503 0.296969,0.861013 -0.06051,0.06051 -0.248422,-0.193741 -0.417581,-0.565007 z m -2.53951,-0.307986 c -0.143585,-0.377084 -0.113194,-0.407474 0.148113,-0.148114 0.180821,0.179478 0.262115,0.39297 0.180653,0.474433 -0.08146,0.08146 -0.229407,-0.06538 -0.328766,-0.326319 z m 16.254865,-1.120275 c 0,-0.136932 0.1177,-0.321712 0.261554,-0.410617 0.149981,-0.0927 0.194336,0.01352 0.103983,0.248967 -0.175892,0.45837 -0.365537,0.542235 -0.365537,0.16165 z m 1.058333,-2.037616 c 0,-0.14196 0.185161,-0.489226 0.411472,-0.771701 0.387977,-0.484268 0.393486,-0.475826 0.09645,0.147868 -0.385712,0.809898 -0.507923,0.959998 -0.507922,0.623833 z M 67.689594,67.258204 c -0.288713,-0.674699 -0.282182,-0.69026 0.08982,-0.214013 0.220646,0.282475 0.401175,0.609897 0.401175,0.727604 0,0.402142 -0.179475,0.214408 -0.490997,-0.513591 z m 10.838613,-0.264583 c 0.199655,-0.327422 0.483196,-0.597136 0.630092,-0.599364 0.146897,-0.0022 0.08849,-0.119468 -0.129791,-0.260532 -0.238466,-0.154109 -0.2711,-0.258097 -0.08176,-0.260532 0.622531,-0.008 0.582131,0.459699 -0.09346,1.081968 -0.671717,0.618701 -0.679448,0.619616 -0.325075,0.03846 z m 1.930371,-0.132292 -0.504028,-0.595312 0.595312,0.504028 c 0.559446,0.473662 0.715761,0.686597 0.504029,0.686597 -0.05021,0 -0.318098,-0.267891 -0.595313,-0.595313 z m 5.316805,-0.198437 c 0.225756,-0.436563 0.469995,-0.79375 0.542756,-0.79375 0.07276,0 -0.05242,0.357187 -0.278173,0.79375 -0.225755,0.436562 -0.469995,0.79375 -0.542755,0.79375 -0.07276,0 0.05242,-0.357188 0.278172,-0.79375 z M 69.635877,65.960809 c -0.222144,-0.531666 -0.342805,-1.02776 -0.268134,-1.10243 0.07467,-0.07467 0.135765,-0.07093 0.135765,0.0083 0,0.07924 0.180191,0.575336 0.400425,1.102431 0.220235,0.527094 0.340895,0.958353 0.268134,0.958353 -0.07276,0 -0.314046,-0.434999 -0.53619,-0.966666 z m 18.492348,-0.467167 c -0.07925,-0.206525 0.05857,-0.684803 0.306268,-1.062839 0.405868,-0.619435 0.407855,-0.671029 0.02011,-0.522235 -0.245689,0.09428 -0.43026,0.03276 -0.43026,-0.1434 0,-0.171923 -0.14642,-0.224244 -0.330729,-0.11818 -0.192151,0.110579 -0.238344,0.08941 -0.110244,-0.05053 0.121269,-0.132471 0.349473,-0.240857 0.507119,-0.240857 0.157647,0 0.341765,-0.165401 0.409152,-0.367558 0.0785,-0.235511 0.0073,-0.296339 -0.198242,-0.169316 -0.197892,0.122303 -0.157763,-0.116967 0.104759,-0.62463 0.23404,-0.452579 0.486188,-0.822871 0.56033,-0.822871 0.07414,0 0.0019,0.248322 -0.160523,0.551827 -0.16243,0.303505 -0.235797,0.611359 -0.163036,0.684119 0.226306,0.226307 0.753126,-0.991745 0.600718,-1.388912 -0.0794,-0.20691 -0.02201,-0.376201 0.127531,-0.376201 0.149543,0 0.220943,-0.0893 0.158671,-0.198437 -0.06227,-0.109141 0.110874,-0.674688 0.384773,-1.256771 0.359881,-0.764817 0.460645,-0.863358 0.363321,-0.355309 -0.07407,0.386663 -0.207452,0.892679 -0.296403,1.124479 -0.08895,0.2318 -0.02993,0.421455 0.131162,0.421455 0.161092,0 0.292891,-0.232209 0.292891,-0.51602 0,-0.28381 0.20836,-0.637377 0.463021,-0.785704 0.254662,-0.148327 0.328078,-0.273305 0.16315,-0.27773 -0.364357,-0.0098 -0.682617,-1.066379 -0.321201,-1.066379 0.140486,0 0.19432,-0.09887 0.119634,-0.219719 -0.07469,-0.120845 0.03593,-0.864986 0.245827,-1.653646 0.493424,-1.854021 0.493591,-3.943419 2.64e-4,-4.647591 -0.213145,-0.304306 -0.302442,-0.638376 -0.198437,-0.742379 0.104002,-0.104003 0.07003,-0.154695 -0.07549,-0.112649 -0.145521,0.04205 -0.66153,-0.13485 -1.146686,-0.393104 -0.999292,-0.531932 -2.598812,-0.81913 -6.790815,-1.219306 -1.600729,-0.152809 -3.505729,-0.408595 -4.233333,-0.568415 -2.483853,-0.545583 -6.436711,-2.7478 -5.898396,-3.286115 0.07682,-0.07682 1.197265,0.180551 2.489871,0.571943 2.174233,0.658342 2.746378,0.71582 7.641858,0.767704 3.94344,0.04179 5.617316,0.161172 6.569806,0.46855 2.752283,0.888186 4.238702,2.594679 4.54288,5.215483 0.09943,0.856721 0.109852,1.67245 0.02315,1.812731 -0.0867,0.140281 -0.211788,0.79024 -0.277974,1.444353 -0.06619,0.654113 -0.298926,1.587488 -0.517194,2.074166 l -0.396746,0.884869 0.122905,-0.79375 c 0.0676,-0.436563 0.04672,-0.615157 -0.04639,-0.396875 -0.09311,0.218281 -0.39456,0.872098 -0.669885,1.452926 -0.293706,0.619601 -0.390491,1.092753 -0.234185,1.144855 0.253306,0.08444 -0.636911,2.164719 -0.926349,2.164719 -0.07354,0 0.05672,-0.368252 0.28947,-0.818338 0.232749,-0.450086 0.359971,-0.881545 0.282718,-0.958799 -0.07725,-0.07725 -0.344937,0.288331 -0.594855,0.812411 -0.329237,0.690418 -0.542086,0.880093 -0.772774,0.688639 -0.22716,-0.188527 -0.358899,-0.109286 -0.459803,0.276574 -0.07778,0.297443 -0.122092,0.592483 -0.09846,0.655644 0.02363,0.06316 -0.183589,0.280496 -0.460484,0.482966 -0.295399,0.216002 -0.421359,0.500939 -0.304808,0.68952 0.111006,0.179613 -0.0021,0.543131 -0.256251,0.824034 -0.250185,0.276452 -0.384649,0.685668 -0.298808,0.909369 0.08584,0.223702 0.09655,0.40673 0.02379,0.40673 -0.07276,0 -0.197133,-0.168975 -0.276383,-0.3755 z m 3.516439,-9.99286 c -0.08446,-0.211067 -0.147156,-0.148372 -0.15985,0.159853 -0.01148,0.278914 0.05104,0.435184 0.138964,0.347265 0.08792,-0.08792 0.09732,-0.316122 0.02088,-0.507118 z m -25.051573,9.57461 c 0,-0.145521 0.119062,-0.264583 0.264583,-0.264583 0.145521,0 0.264584,0.119062 0.264584,0.264583 0,0.145521 -0.119063,0.264583 -0.264584,0.264583 -0.145521,0 -0.264583,-0.119062 -0.264583,-0.264583 z m 12.385807,0.08384 c 0.190995,-0.07643 0.419198,-0.06703 0.507119,0.02089 0.08792,0.08792 -0.06835,0.150453 -0.347265,0.138965 -0.308227,-0.01269 -0.37092,-0.07539 -0.159854,-0.159853 z m 8.516277,-0.348426 c 0.15576,-0.291042 0.342733,-0.529167 0.415493,-0.529167 0.07276,0 0.0048,0.238125 -0.15091,0.529167 -0.15576,0.291041 -0.342733,0.529166 -0.415494,0.529166 -0.07276,0 -0.0048,-0.238125 0.150911,-0.529166 z m -0.529167,-0.264584 c 0.15576,-0.291042 0.342733,-0.529167 0.415494,-0.529167 0.07276,0 0.0048,0.238125 -0.150911,0.529167 -0.15576,0.291042 -0.342733,0.529167 -0.415493,0.529167 -0.07276,0 -0.0048,-0.238125 0.15091,-0.529167 z M 66.014315,63.042568 c 0.190996,-0.07643 0.419199,-0.06703 0.507118,0.02089 0.08792,0.08792 -0.06835,0.150453 -0.347266,0.138964 -0.308224,-0.0127 -0.370919,-0.07539 -0.159852,-0.159852 z m 1.633143,-0.355837 c -0.157942,-0.295117 -0.400256,-0.466684 -0.538475,-0.38126 -0.13822,0.08543 -0.251309,-0.09686 -0.251309,-0.405079 0,-0.308218 -0.11135,-0.491578 -0.247445,-0.407467 -0.136095,0.08411 -0.295634,-0.236284 -0.354532,-0.71199 l -0.107086,-0.864918 -0.06268,0.926041 -0.06268,0.926042 -0.360751,-1.058333 -0.360751,-1.058334 0.111279,1.058334 0.111279,1.058333 -0.438653,-1.190625 c -0.319946,-0.868419 -0.443835,-2.121443 -0.457799,-4.630208 -0.01864,-3.348657 0.0032,-3.485172 0.824941,-5.164075 0.486609,-0.994158 1.214953,-2.002634 1.719792,-2.381251 0.764392,-0.573276 1.144759,-0.655972 2.992372,-0.650576 2.681003,0.0078 5.924119,0.986663 5.30856,1.602222 -0.206784,0.206784 -0.6226,0.375971 -0.924036,0.375971 -0.301436,0 -0.548066,0.166376 -0.548066,0.369724 0,0.277471 -0.544656,0.398225 -2.182812,0.483943 -1.200547,0.06282 -2.410704,0.214333 -2.689237,0.336697 -0.386553,0.169818 -0.455161,0.139532 -0.289849,-0.127948 0.145178,-0.234903 0.114452,-0.287311 -0.0932,-0.158972 -0.170379,0.1053 -0.246364,0.294062 -0.168856,0.419473 0.07751,0.12541 0.0078,0.310311 -0.154972,0.410892 -0.666692,0.412038 -1.032904,2.070618 -1.165967,5.280675 -0.138423,3.339397 -0.02877,4.227443 0.436007,3.530952 0.158133,-0.236972 0.184735,-0.122163 0.07827,0.337804 -0.0887,0.38323 -0.04238,1.127371 0.102927,1.653646 0.294686,1.067265 0.207071,1.230002 -0.226275,0.420287 z M 65.365854,58.5931 c -0.08376,-0.218281 -0.199088,-0.396875 -0.256279,-0.396875 -0.05719,0 -0.103984,0.178594 -0.103984,0.396875 0,0.218281 0.115326,0.396875 0.256279,0.396875 0.140954,0 0.187747,-0.178594 0.103984,-0.396875 z m 2.845328,3.810482 c -0.162346,-0.465705 -0.286785,-0.977799 -0.276531,-1.137985 0.01025,-0.160186 0.189321,0.174608 0.397927,0.743986 0.208606,0.569377 0.333045,1.081471 0.276531,1.137985 -0.05651,0.05651 -0.235581,-0.278279 -0.397927,-0.743986 z m 21.929826,0.631637 c 0,-0.151956 0.208359,-0.43969 0.463021,-0.63941 0.428297,-0.335892 0.433911,-0.32344 0.07487,0.166041 -0.213484,0.291042 -0.421844,0.578776 -0.463021,0.63941 -0.04118,0.06063 -0.07487,-0.01408 -0.07487,-0.166041 z M 67.407729,59.100218 c 0.01269,-0.308224 0.07539,-0.370919 0.159853,-0.159852 0.07643,0.190996 0.06703,0.419199 -0.02089,0.507118 -0.08792,0.08792 -0.150453,-0.06835 -0.138965,-0.347266 z"
           id="path1149" />
        <path
           style="fill:#cf235b;stroke-width:0.264583"
           d="m 70.653949,84.8844 c -5.897701,-0.847907 -9.863029,-4.314709 -10.836066,-9.473735 -0.43979,-2.331765 -0.261014,-4.529764 0.576682,-7.090114 0.503989,-1.540402 1.687507,-4.140206 1.823054,-4.004658 0.05432,0.05431 -0.07541,0.753436 -0.288271,1.553605 -0.63065,2.370651 -0.721536,4.691294 -0.267395,6.82754 0.818315,3.849293 2.653321,6.299102 5.931223,7.918424 2.012379,0.994137 2.024445,0.99637 5.337073,0.988237 2.952567,-0.0072 3.554467,-0.09073 5.436801,-0.754052 4.267231,-1.503741 8.478139,-4.255437 12.179556,-7.958963 4.405914,-4.408422 6.801216,-9.049361 7.1745,-13.900709 0.199203,-2.5889 -0.213823,-4.739769 -1.333907,-6.946444 l -0.907098,-1.787069 0.769419,0.547875 c 0.863905,0.615154 2.198667,2.447641 2.758123,3.786608 3.848597,9.210991 -7.076072,25.337515 -19.979135,29.492331 -3.187993,1.026541 -5.360862,1.234403 -8.374559,0.801124 z m 9.156958,-23.182446 c -0.03271,-2.097032 -0.333904,-4.991644 -0.542205,-5.21093 -0.149029,-0.156887 -0.508958,-0.154997 -0.966436,0.0051 -0.680356,0.23806 -0.737788,0.376853 -0.861258,2.08134 -0.08147,1.124713 -0.259341,1.868116 -0.463021,1.935202 -0.248305,0.08178 -0.330729,-0.490021 -0.330729,-2.294368 0,-1.321814 0.10914,-2.403298 0.242535,-2.403298 0.133394,0 0.287913,0.136136 0.343376,0.302524 0.07566,0.226977 0.242003,0.226977 0.666113,0 0.867235,-0.46413 1.86939,-0.367861 2.178251,0.209249 0.356378,0.665899 0.36467,6.10281 0.0093,6.10281 -0.145521,0 -0.269692,-0.327421 -0.275934,-0.727604 z"
           id="path1147" />
        <path
           style="fill:#0b76b8;stroke-width:0.264583"
           d="m 73.684526,77.047788 c -0.524402,-0.545703 -1.483162,-1.825625 -2.130577,-2.844271 -1.55971,-2.454055 -4.63417,-8.652981 -4.496471,-9.066078 0.05988,-0.179647 -0.0085,-0.32663 -0.151872,-0.32663 -0.418836,0 -0.865983,-1.530629 -0.491736,-1.683261 0.171332,-0.06988 0.112613,-0.136446 -0.130486,-0.147935 -0.431527,-0.02039 -0.585331,-0.456488 -0.870527,-2.468284 -0.10987,-0.775031 -0.08688,-0.755447 0.232962,0.198438 l 0.354862,1.058333 0.12157,-0.926042 0.12157,-0.926041 0.04234,0.87551 c 0.02456,0.507786 0.153472,0.80683 0.306927,0.71199 0.145521,-0.08994 0.264583,0.08163 0.264583,0.38126 0,0.29963 0.110659,0.515016 0.245909,0.478636 0.13525,-0.03638 0.422228,0.170502 0.63773,0.459738 0.351407,0.471643 0.360137,0.385206 0.08464,-0.838026 -0.168949,-0.75015 -0.396396,-1.453126 -0.505438,-1.562169 -0.109043,-0.109042 -0.184448,-0.803493 -0.167567,-1.543224 0.01688,-0.739731 0.07871,-1.10684 0.137406,-0.815799 0.05869,0.291042 0.242713,1.243542 0.408934,2.116667 0.443599,2.330135 1.588243,5.162896 4.629416,11.456866 1.496753,3.09766 2.205105,4.106233 2.603867,3.707472 0.06302,-0.06302 0.304138,-1.357646 0.535825,-2.876958 0.798835,-5.238442 1.770076,-7.128809 3.661937,-7.127384 0.891469,6.61e-4 2.248263,1.005782 2.797742,2.072561 0.506306,0.982968 0.03741,1.048282 -0.737114,0.102674 -0.71342,-0.871004 -2.124792,-1.772547 -2.37821,-1.51913 -0.07536,0.07536 0.01039,0.137024 0.190556,0.137024 0.213431,0 0.172024,0.155557 -0.11883,0.446409 -0.682847,0.682848 -1.379244,2.505111 -1.825121,4.7758 -0.870185,4.431538 -1.211671,5.722765 -1.638089,6.193951 -0.592644,0.654865 -0.637367,0.641935 -1.736743,-0.502097 z m 9.645787,-2.472402 c 0.164486,-2.133314 0.630269,-3.739507 1.795835,-6.192702 1.067335,-2.246451 4.22111,-7.478045 4.22111,-7.002131 0,0.218351 -0.297656,0.835041 -0.661458,1.370424 -0.772576,1.136948 -0.821979,1.384293 -0.231201,1.157591 0.390554,-0.149869 0.389263,-0.102538 -0.014,0.51292 -0.244342,0.372914 -0.37634,0.892015 -0.29333,1.153558 0.08346,0.262956 -0.06624,0.760237 -0.334875,1.112418 -0.887862,1.163978 -4.021389,8.271357 -4.021389,9.12119 0,0.191405 -0.137647,0.433078 -0.305885,0.537054 -0.225867,0.139594 -0.266364,-0.323508 -0.15481,-1.770322 z m 4.429445,-9.764577 c 0.15576,-0.291042 0.223671,-0.529167 0.15091,-0.529167 -0.07276,0 -0.259733,0.238125 -0.415493,0.529167 -0.155761,0.291041 -0.223671,0.529166 -0.150911,0.529166 0.07276,0 0.259734,-0.238125 0.415494,-0.529166 z m 0.529167,0.429271 c 0,-0.200463 0.181282,-0.514929 0.402849,-0.698813 0.223859,-0.185785 0.336262,-0.544128 0.252987,-0.806509 -0.09022,-0.284252 0.02214,-0.568434 0.282315,-0.714034 0.237699,-0.133023 0.431943,-0.317725 0.431657,-0.41045 -2.64e-4,-0.09272 0.06312,-0.411952 0.140902,-0.709395 0.100904,-0.38586 0.232643,-0.465101 0.459803,-0.276574 0.230688,0.191454 0.443537,0.0018 0.772774,-0.688639 0.249918,-0.52408 0.517128,-0.890138 0.593802,-0.813463 0.191722,0.191723 -0.816102,2.033902 -2.384124,4.357876 -0.81915,1.21407 -0.952965,1.32079 -0.952965,0.760001 z m 1.591516,-4.728751 c 0.02676,-0.440695 0.75909,-2.323016 0.772033,-1.984375 0.0097,0.254662 0.166529,0.466642 0.34843,0.471067 0.183547,0.0045 0.124674,0.128061 -0.132292,0.27773 -0.254661,0.148327 -0.463021,0.501894 -0.463021,0.785704 0,0.283811 -0.119062,0.51602 -0.264583,0.51602 -0.145521,0 -0.262776,-0.02977 -0.260567,-0.06615 z m 1.848067,-0.810199 c 0,-0.04543 0.238125,-0.575457 0.529167,-1.177844 0.291041,-0.602387 0.529166,-1.239907 0.529166,-1.416711 0,-0.176804 0.07166,-0.2498 0.159248,-0.162213 0.222102,0.222101 -0.675952,2.839363 -0.974262,2.839363 -0.133826,0 -0.243319,-0.03717 -0.243319,-0.08259 z M 65.005591,58.5931 c 0,-0.218281 0.04679,-0.396875 0.103984,-0.396875 0.05719,0 0.172517,0.178594 0.256279,0.396875 0.08376,0.218281 0.03697,0.396875 -0.103984,0.396875 -0.140953,0 -0.256279,-0.178594 -0.256279,-0.396875 z m 26.479223,-2.932465 c 0.0127,-0.308225 0.07539,-0.37092 0.15985,-0.159853 0.07643,0.190996 0.06703,0.419199 -0.02088,0.507118 -0.08792,0.08792 -0.150453,-0.06835 -0.138965,-0.347265 z"
           id="path1145" />
      </g>
      <text
         xml:space="preserve"
         style="font-style:normal;font-weight:normal;font-size:10.5833px;line-height:1.25;font-family:sans-serif;white-space:pre;inline-size:106.691;fill:#000000;fill-opacity:1;stroke:none;stroke-width:0.264583"
         x="142.67754"
         y="116.88334"
         id="text1157"
         transform="matrix(1.2705315,0,0,1.9127428,-123.12726,-117.39623)"
         inkscape:export-xdpi="92"
         inkscape:export-ydpi="92"><tspan
           x="142.67754"
           y="116.88334"><tspan
             style="font-style:normal;font-variant:normal;font-weight:normal;font-stretch:normal;font-size:10.5833px;font-family:'Wide Latin';-inkscape-font-specification:'Wide Latin, Normal';font-variant-ligatures:normal;font-variant-caps:normal;font-variant-numeric:normal;font-variant-east-asian:normal;fill:#ff0000">NAMASTE</tspan><tspan
             style="font-style:normal;font-variant:normal;font-weight:normal;font-stretch:normal;font-size:10.5833px;font-family:'Wide Latin';-inkscape-font-specification:'Wide Latin, Normal';font-variant-ligatures:normal;font-variant-caps:normal;font-variant-numeric:normal;font-variant-east-asian:normal;stroke-width:0.264583">  </tspan></tspan><tspan
           x="142.67754"
           y="130.28839"><tspan
             style="font-style:normal;font-variant:normal;font-weight:normal;font-stretch:normal;font-size:10.5833px;font-family:'Wide Latin';-inkscape-font-specification:'Wide Latin, Normal';font-variant-ligatures:normal;font-variant-caps:normal;font-variant-numeric:normal;font-variant-east-asian:normal;text-align:start;text-anchor:start;fill:#0000ff">DENTAL</tspan></tspan></text>
    </g>
  </g>
</svg>
